<svg xmlns="http://www.w3.org/2000/svg"  viewBox="0 0 64 64" width="64px" height="64px"><path fill="#ed7899" d="M13.66,7.4A29.88,29.88,0,0,1,24.13,5a20.57,20.57,0,0,1,4.67.52,32.16,32.16,0,0,1,6.53,2.93L29.71,27.57a20.11,20.11,0,0,0-11-3.64h0A29.71,29.71,0,0,0,8.3,26.12Z"/><path fill="#f283a5" d="M28.8,5.52A20.57,20.57,0,0,0,24.13,5,29.88,29.88,0,0,0,13.66,7.4l-.52,1.81a1.6,1.6,0,0,0,2,2,26,26,0,0,1,7-1.19,20.57,20.57,0,0,1,4.67.52,32.16,32.16,0,0,1,6.53,2.93L29.26,27.29l.45.28L35.33,8.45A32.16,32.16,0,0,0,28.8,5.52Z"/><path fill="#f9e3ae" d="M55.57,39.27A33.31,33.31,0,0,1,45.43,41,21.26,21.26,0,0,1,33,37.32L27.51,56.25c1.62.93,7.09,3.86,11.27,3.86a31.13,31.13,0,0,0,11.55-2.64Z"/><path fill="#85cbf8" d="M22.45,53.26c1.39-4.69,4.72-16,5.72-19.42-.72-.44-1.46-.88-2.21-1.28a18.42,18.42,0,0,0-8.35-2.23c-.36,0-.72,0-1.09,0a35.37,35.37,0,0,0-8.46,1.86c-.53.19-1.07.4-1.62.62L1,51.61a29.23,29.23,0,0,1,10.07-2,20.32,20.32,0,0,1,11.38,3.69Z"/><path fill="#f6d397" d="M51.34,51.47a31.13,31.13,0,0,1-11.55,2.64c-3.75,0-8.52-2.35-10.64-3.51l-1.63,5.65c1.62.93,7.09,3.86,11.27,3.86a31.13,31.13,0,0,0,11.55-2.64l5.23-18.2-.79.22Z"/><path fill="#6fc6f0" d="M23.45,47.26a20.32,20.32,0,0,0-11.38-3.69,28.36,28.36,0,0,0-9.25,1.76L1,51.61a29.23,29.23,0,0,1,10.07-2,20.32,20.32,0,0,1,11.38,3.69c1.39-4.69,4.72-16,5.72-19.42l-.65-.38C26.14,38.15,24.37,44.15,23.45,47.26Z"/><path fill="#72caaf" d="M63,13.64a28.77,28.77,0,0,1-10.36,2.08A21.27,21.27,0,0,1,40.35,12L34.78,31.14a22,22,0,0,0,12,3.61A25.81,25.81,0,0,0,57.4,32.29v-.13l.23-.05L63,13.64Z"/><path fill="#82d8bb" d="M39.35,17a21.27,21.27,0,0,0,12.3,3.76,28.48,28.48,0,0,0,9.84-1.89L63,13.64h0a28.77,28.77,0,0,1-10.36,2.08A21.27,21.27,0,0,1,40.35,12L34.78,31.14l.39.23Z"/><path fill="#8d6c9f" d="M28.69 33c-.71-.43-1.48-.89-2.28-1.32a19.41 19.41 0 0 0-8.8-2.34c-.39 0-.78 0-1.17 0a36.52 36.52 0 0 0-8.72 1.92c-.54.2-1.09.4-1.66.63a1 1 0 0 0-.59.65L0 51.33a1 1 0 0 0 1.31 1.22 28.22 28.22 0 0 1 9.72-2A19.48 19.48 0 0 1 21.91 54.1a1 1 0 0 0 1.5-.56c1.39-4.69 4.72-16 5.72-19.42A1 1 0 0 0 28.69 33zM21.86 51.72a20.51 20.51 0 0 0-10.79-3.16A28.19 28.19 0 0 0 2.5 50L7.26 33.59l1.13-.42a34.45 34.45 0 0 1 8.22-1.81c.34 0 .67 0 1 0a17.41 17.41 0 0 1 7.87 2.11c.51.28 1 .57 1.51.86C25.9 38 23.3 46.87 21.86 51.72zM8.66 27.05a28.83 28.83 0 0 1 10.06-2.13 19.24 19.24 0 0 1 10.46 3.49 1 1 0 0 0 .54.16 1 1 0 0 0 .35-.06 1 1 0 0 0 .61-.65L36.29 8.73a1 1 0 0 0-.46-1.15 33.22 33.22 0 0 0-6.8-3A21.68 21.68 0 0 0 24.11 4h0A30.84 30.84 0 0 0 13.29 6.47a1 1 0 0 0-.59.65L7.34 25.84a1 1 0 0 0 1.31 1.21zm5.83-18.9A28.33 28.33 0 0 1 24.13 6a19.66 19.66 0 0 1 4.43.49 28.13 28.13 0 0 1 5.59 2.44l-.83 2.83A27.49 27.49 0 0 0 28 9.55 21.68 21.68 0 0 0 23.11 9h0a27 27 0 0 0-7.33 1.24 1 1 0 0 0 .58 1.92A25 25 0 0 1 23.13 11a19.66 19.66 0 0 1 4.43.49 26.91 26.91 0 0 1 5.19 2.23L29.12 26a20.23 20.23 0 0 0-10.4-3.11 28.62 28.62 0 0 0-8.93 1.6zM63.68 12.9a1 1 0 0 0-1-.2 27.82 27.82 0 0 1-10 2 20.38 20.38 0 0 1-11.73-3.58 1 1 0 0 0-1.53.54L33.82 30.86A1 1 0 0 0 34.24 32a23 23 0 0 0 12.54 3.76 26.8 26.8 0 0 0 11-2.54 1.95 1.95 0 0 0 .76-.82L64 13.92A1 1 0 0 0 63.68 12.9zM56.79 31.36a1 1 0 0 0-.2.2C49.27 34.74 42.2 34.42 36 30.69l3.6-12.4a21.91 21.91 0 0 0 9.13 3.25h.12a1 1 0 0 0 .12-2 19.93 19.93 0 0 1-8.79-3.27l.8-2.75a22.49 22.49 0 0 0 11.71 3.19 28.68 28.68 0 0 0 8.85-1.48zM55.27 38.32A32.35 32.35 0 0 1 45.43 40 20.35 20.35 0 0 1 33.56 36.5 1 1 0 0 0 32 37L26.55 56A1 1 0 0 0 27 57.12c2.11 1.2 7.47 4 11.77 4A32.08 32.08 0 0 0 50.72 58.4a1 1 0 0 0 .59-.65l5.23-18.2a1 1 0 0 0-1.27-1.23zM51 51.56V51a1 1 0 0 0-2 0v2a1 1 0 0 0 1 1 1 1 0 0 0 .32-.06l-.8 2.79a29.58 29.58 0 0 1-10.73 2.39c-3.47 0-8-2.22-10.09-3.35l.72-2.48a1 1 0 0 0 .59.21 1 1 0 0 0 1-1v-2a1 1 0 0 0-.53-.87l3.11-10.74A22.76 22.76 0 0 0 45.43 42a33.06 33.06 0 0 0 8.67-1.24z"/><path fill="#8d6c9f" d="M52.35 20.73a1 1 0 0 0 1 .93h.07a27.53 27.53 0 0 0 2.88-.36 1 1 0 1 0-.35-2 25.66 25.66 0 0 1-2.67.33A1 1 0 0 0 52.35 20.73zM6 42.25a1 1 0 0 0-1 1v2a1 1 0 0 0 2 0v-2A1 1 0 0 0 6 42.25zM11 41.75a1 1 0 0 0-1 1v2a1 1 0 0 0 2 0v-2A1 1 0 0 0 11 41.75zM16 42.25a1 1 0 0 0-1 1v2a1 1 0 0 0 2 0v-2A1 1 0 0 0 16 42.25zM21 44.25a1 1 0 0 0-1 1v2a1 1 0 0 0 2 0v-2A1 1 0 0 0 21 44.25zM35 51.5a1 1 0 0 0-1 1v2a1 1 0 0 0 2 0v-2A1 1 0 0 0 35 51.5zM40 52.25a1 1 0 0 0-1 1v2a1 1 0 0 0 2 0v-2A1 1 0 0 0 40 52.25zM44 52.5v2a1 1 0 0 0 2 0v-2a1 1 0 0 0-2 0z"/></svg>