<?xml version="1.0" encoding="iso-8859-1"?>
<!-- Generator: Adobe Illustrator 16.0.0, SVG Export Plug-In . SVG Version: 6.00 Build 0)  -->
<!DOCTYPE svg PUBLIC "-//W3C//DTD SVG 1.1//EN" "http://www.w3.org/Graphics/SVG/1.1/DTD/svg11.dtd">
<svg version="1.1" id="Capa_1" xmlns="http://www.w3.org/2000/svg" xmlns:xlink="http://www.w3.org/1999/xlink" x="0px" y="0px"
	 width="342.941px" height="342.941px" viewBox="0 0 342.941 342.941" style="enable-background:new 0 0 342.941 342.941;"
	 xml:space="preserve">
<g>
	<g>
		<path d="M7.015,208.883h328.912c0.043,0.006,0.098,0,0.121,0c3.453,0,6.236-2.795,6.236-6.236c0-1.266-0.372-2.447-1.023-3.422
			L265.207,13.231c-0.962-2.344-3.239-3.878-5.772-3.878H83.51c-2.533,0-4.807,1.535-5.775,3.878L1.242,200.291
			c-0.785,1.918-0.563,4.109,0.597,5.839C2.993,207.848,4.938,208.883,7.015,208.883z M87.693,21.823h167.552l71.39,174.589H16.298
			L87.693,21.823z"/>
		<path d="M6.235,240.059h330.471c3.446,0,6.235-2.795,6.235-6.235s-2.789-6.235-6.235-6.235H6.235
			c-3.449,0-6.235,2.795-6.235,6.235S2.786,240.059,6.235,240.059z"/>
		<path d="M99.765,59.235h137.177c3.446,0,6.235-2.795,6.235-6.235s-2.789-6.235-6.235-6.235H99.765
			c-3.449,0-6.235,2.795-6.235,6.235S96.315,59.235,99.765,59.235z"/>
		<path d="M87.294,90.412h162.118c3.446,0,6.235-2.795,6.235-6.235s-2.789-6.235-6.235-6.235H87.294
			c-3.45,0-6.235,2.795-6.235,6.235S83.845,90.412,87.294,90.412z"/>
		<path d="M261.883,109.118H74.824c-3.45,0-6.235,2.795-6.235,6.235c0,3.44,2.786,6.235,6.235,6.235h187.059
			c3.446,0,6.235-2.795,6.235-6.235C268.118,111.913,265.329,109.118,261.883,109.118z"/>
		<path d="M6.235,271.235h330.471c3.446,0,6.235-2.795,6.235-6.235s-2.789-6.235-6.235-6.235H6.235C2.786,258.765,0,261.56,0,265
			S2.786,271.235,6.235,271.235z"/>
		<path d="M6.235,302.412h330.471c3.446,0,6.235-2.795,6.235-6.235s-2.789-6.235-6.235-6.235H6.235
			c-3.449,0-6.235,2.795-6.235,6.235S2.786,302.412,6.235,302.412z"/>
		<path d="M6.235,333.588h330.471c3.446,0,6.235-2.795,6.235-6.234c0-3.441-2.789-6.236-6.235-6.236H6.235
			c-3.449,0-6.235,2.795-6.235,6.236C0,330.793,2.786,333.588,6.235,333.588z"/>
	</g>
</g>
<g>
</g>
<g>
</g>
<g>
</g>
<g>
</g>
<g>
</g>
<g>
</g>
<g>
</g>
<g>
</g>
<g>
</g>
<g>
</g>
<g>
</g>
<g>
</g>
<g>
</g>
<g>
</g>
<g>
</g>
</svg>
