<?xml version="1.0" encoding="iso-8859-1"?>
<!-- Generator: Adobe Illustrator 19.0.0, SVG Export Plug-In . SVG Version: 6.00 Build 0)  -->
<svg version="1.1" id="Layer_1" xmlns="http://www.w3.org/2000/svg" xmlns:xlink="http://www.w3.org/1999/xlink" x="0px" y="0px"
	 viewBox="0 0 512 512" style="enable-background:new 0 0 512 512;" xml:space="preserve">
<g>
	<g>
		<path d="M228.741,349.693c-14.139,0-25.642,11.503-25.642,25.642c0,14.139,11.503,25.642,25.642,25.642
			c14.139,0,25.642-11.503,25.642-25.642C254.383,361.196,242.88,349.693,228.741,349.693z M228.741,384.808
			c-5.224,0-9.474-4.249-9.474-9.474c0-5.225,4.25-9.474,9.474-9.474c5.223,0,9.474,4.249,9.474,9.474
			C238.215,380.559,233.965,384.808,228.741,384.808z"/>
	</g>
</g>
<g>
	<g>
		<path d="M156.067,349.693c-14.139,0-25.642,11.503-25.642,25.642c0,14.139,11.503,25.642,25.642,25.642
			s25.642-11.503,25.642-25.642C181.709,361.196,170.206,349.693,156.067,349.693z M156.067,384.808
			c-5.224,0-9.474-4.249-9.474-9.474c0-5.225,4.25-9.474,9.474-9.474c5.223,0,9.474,4.249,9.474,9.474
			C165.541,380.559,161.291,384.808,156.067,384.808z"/>
	</g>
</g>
<g>
	<g>
		<path d="M304.617,221.655c-1.518-2.126-3.968-3.387-6.579-3.387H91.827l-16.826-48.166c-1.134-3.245-4.195-5.418-7.633-5.418
			H43.655c-4.465,0-8.084,3.619-8.084,8.084s3.62,8.084,8.084,8.084H61.63l55.236,158.111c1.134,3.244,4.195,5.417,7.633,5.417
			h135.815c3.454,0,6.526-2.193,7.647-5.46l37.726-109.945C306.533,226.507,306.135,223.781,304.617,221.655z M97.475,234.436
			h33.304l4.439,22.636h-29.835L97.475,234.436z M117.433,291.564l-6.402-18.324h27.356l3.593,18.324H117.433z M130.236,328.212
			l-7.154-20.48h22.069l4.015,20.48H130.236z M184.32,328.212h-18.678l-4.016-20.48h22.694V328.212z M184.32,291.564h-25.863
			l-3.593-18.324h29.456V291.564z M184.32,257.071h-32.627l-4.439-22.636h37.066V257.071z M219.165,328.212h-18.677v-20.48h22.693
			L219.165,328.212z M226.351,291.564h-25.863V273.24h29.457L226.351,291.564z M200.488,257.071v-22.636h37.066l-4.439,22.636
			H200.488z M254.538,328.212h-18.897l4.015-20.48h21.908L254.538,328.212z M267.114,291.564h-24.286l3.593-18.324h26.981
			L267.114,291.564z M278.949,257.071h-29.359l4.439-22.636h32.687L278.949,257.071z"/>
	</g>
</g>
<g>
	<g>
		<path d="M268.935,120.724H115.874c-4.465,0-8.084,3.618-8.084,8.084c0,4.466,3.62,8.084,8.084,8.084h153.061
			c4.465,0,8.084-3.618,8.084-8.084C277.019,124.343,273.399,120.724,268.935,120.724z"/>
	</g>
</g>
<g>
	<g>
		<path d="M268.935,172.463h-86.232c-4.465,0-8.084,3.619-8.084,8.084c0,4.466,3.62,8.084,8.084,8.084h86.232
			c4.465,0,8.084-3.618,8.084-8.084C277.019,176.082,273.399,172.463,268.935,172.463z"/>
	</g>
</g>
<g>
	<g>
		<path d="M150.366,172.463h-34.493c-4.465,0-8.084,3.619-8.084,8.084c0,4.466,3.62,8.084,8.084,8.084h34.493
			c4.465,0,8.084-3.618,8.084-8.084C158.451,176.082,154.831,172.463,150.366,172.463z"/>
	</g>
</g>
<g>
	<g>
		<path d="M487.747,73.297h-68.985c-2.161,0-4.233,0.866-5.752,2.404l-71.677,72.582V81.381c0-4.466-3.62-8.084-8.084-8.084H24.253
			C10.879,73.297,0,84.177,0,97.55v218.816c0,4.466,3.62,8.084,8.084,8.084s8.084-3.618,8.084-8.084V97.55
			c0-4.458,3.626-8.084,8.084-8.084h300.913v333.069H24.253c-4.458,0-8.084-3.626-8.084-8.084v-63.59
			c0-4.466-3.62-8.084-8.084-8.084S0,346.394,0,350.86v63.59c0,13.372,10.879,24.253,24.253,24.253h402.055
			c4.465,0,8.084-3.618,8.084-8.084c0-4.466-3.62-8.084-8.084-8.084h-84.966l0.254-246.75h16.265v190.257
			c0,6.326,5.207,7.665,10.24,7.987c5.158,0.331,9.703,2.016,13.221,5.941c3.22,3.592,4.466,7.841,4.531,12.582
			c0.075,5.387,0.456,11.657,7.751,11.657h52.469c6.733,0,7.817-5.69,7.784-10.92c-0.032-5.024,1.066-9.489,4.5-13.32
			c3.433-3.83,7.357-4.94,12.186-5.881c4.644-0.904,9.12-2.33,9.12-8.145V141.743c0-4.466-3.62-8.084-8.084-8.084
			c-9.807,0-17.785-7.977-17.785-17.785c0-4.466-3.62-8.084-8.084-8.084h-18.863V89.465h60.901c4.458,0,8.084,3.626,8.084,8.084
			v316.901c0,4.458-3.626,8.084-8.084,8.084h-20.48c-4.465,0-8.084,3.618-8.084,8.084c0,4.466,3.62,8.084,8.084,8.084h20.48
			c13.373,0,24.253-10.88,24.253-24.253V97.55C512,84.177,501.121,73.297,487.747,73.297z M352.865,159.617l57.813-58.544v58.544
			H352.865z M438.598,123.958c3.001,12.241,12.657,21.896,24.897,24.897v209.979c-13.645,3.346-24.079,14.961-25.661,29.209h-35.988
			c-1.664-14.988-13.126-27.065-27.817-29.664V175.785h44.733c4.465,0,8.084-3.618,8.084-8.084v-43.743H438.598z"/>
	</g>
</g>
<g>
	<g>
		<path d="M448.943,223.124c4.465,0,8.084-3.618,8.084-8.084c0-4.466-3.62-8.084-8.084-8.084h-22.097v-9.162
			c0-4.466-3.62-8.084-8.084-8.084c-4.465,0-8.084,3.618-8.084,8.084v9.162h-7.006c-10.401,0-18.863,8.463-18.863,18.863v17.246
			c0,10.401,8.463,18.863,18.863,18.863h7.006v22.636h-22.097c-4.465,0-8.084,3.618-8.084,8.084c0,4.466,3.62,8.084,8.084,8.084
			h22.097v9.162c0,4.466,3.62,8.084,8.084,8.084c4.465,0,8.084-3.618,8.084-8.084v-9.162h7.006c10.401,0,18.863-8.463,18.863-18.863
			v-17.246c0-10.401-8.463-18.863-18.863-18.863h-7.006v-22.636H448.943z M410.678,245.76h-7.006c-1.485,0-2.695-1.208-2.695-2.695
			v-17.246c0-1.486,1.209-2.695,2.695-2.695h7.006V245.76z M433.853,261.928c1.485,0,2.695,1.208,2.695,2.695v17.246
			c0,1.486-1.209,2.695-2.695,2.695h-7.006v-22.636H433.853z"/>
	</g>
</g>
<g>
</g>
<g>
</g>
<g>
</g>
<g>
</g>
<g>
</g>
<g>
</g>
<g>
</g>
<g>
</g>
<g>
</g>
<g>
</g>
<g>
</g>
<g>
</g>
<g>
</g>
<g>
</g>
<g>
</g>
</svg>
